<?xml version="1.0" encoding="utf-8"?>
<svg version="1.1" id="Layer_1" xmlns="http://www.w3.org/2000/svg" xmlns:xlink="http://www.w3.org/1999/xlink" x="0px" y="0px"
	 viewBox="0 0 342 513" style="enable-background:new 0 0 342 513;background-color:#3E3E3E" xml:space="preserve">
<g>
	<path fill="#959595" d="M132.6,160l118-23v161.7c0,8.3-1.2,15.9-3.5,23c-2.3,7.1-5.5,13.3-9.7,18.6c-4.4,5.3-9.4,9.4-15.6,12.4
		c-6.2,3-13.3,4.6-21.2,4.6c-7.8,0-13.8-2.1-18.2-6.2s-6.7-9.9-6.7-17c0-4.4,0.9-9,3-13.6c2.1-4.6,4.8-8.7,8.5-12.2
		c3.7-3.7,8.1-6.7,13.1-9c5.1-2.3,10.8-3.5,17-3.5c5.8,0,12,1.2,18.4,3.7v-90.9L147.8,226v89.3c0,8.3-1.2,15.9-3.5,23
		c-2.3,7.1-5.5,13.3-9.7,18.6c-4.4,5.3-9.4,9.4-15.6,12.4s-13.3,4.6-21.2,4.6s-13.8-2.1-18.2-6.2c-4.4-4.1-6.7-9.9-6.7-17
		c0-4.4,0.9-9,3-13.6s4.8-8.7,8.5-12.2c3.7-3.7,8.1-6.7,13.1-9c5.1-2.3,10.8-3.5,17-3.5c5.8,0,12,1.2,18.4,3.7V160H132.6z
		 M235.6,163l-88.1,17v23l88.1-17.3V163z"/>
</g>
</svg>
