<?xml version="1.0" encoding="utf-8"?>
<svg version="1.1" id="Layer_1" xmlns="http://www.w3.org/2000/svg" xmlns:xlink="http://www.w3.org/1999/xlink" x="0px" y="0px"
	 viewBox="0 0 342 513" style="enable-background:new 0 0 342 513;background-color:#3E3E3E" xml:space="preserve">
<g>
	<path fill="#959595" d="M261,137v240H81V137H261z M103.5,159.5v14.9h15v-14.9H103.5z M103.5,189.5v15h15v-15H103.5z M103.5,219.5v14.9
		h15v-14.9H103.5z M103.5,264.5h15v-15h-15V264.5z M103.5,279.5v14.9h15v-14.9H103.5z M103.5,309.5v15h15v-15H103.5z M103.5,339.5
		v14.9h15v-14.9H103.5z M193.6,152h-45.1c-2.1,0-4,0.4-5.8,1.1c-1.8,0.8-3.4,1.8-4.7,3.2c-1.4,1.4-2.4,2.9-3.2,4.7
		c-0.8,1.8-1.1,3.8-1.1,5.8v67.5c0,2.1,0.4,4,1.1,5.8c0.8,1.8,1.8,3.4,3.2,4.7c1.4,1.4,2.9,2.4,4.7,3.2c1.8,0.8,3.8,1.2,5.8,1.2
		h45.1c2.1,0,4-0.4,5.8-1.2c1.8-0.8,3.4-1.9,4.7-3.2c1.4-1.4,2.4-2.9,3.2-4.7c0.8-1.8,1.1-3.8,1.1-5.8v-67.5c0-2.1-0.4-4-1.1-5.8
		c-0.8-1.8-1.8-3.4-3.2-4.7c-1.4-1.4-2.9-2.4-4.7-3.2C197.6,152.4,195.7,152,193.6,152z M148.5,362h45.1c2.1,0,4-0.4,5.8-1.2
		c1.8-0.8,3.4-1.9,4.7-3.2c1.4-1.4,2.4-2.9,3.2-4.7c0.8-1.8,1.1-3.8,1.1-5.8v-67.4c0-2.1-0.4-4-1.1-5.8c-0.8-1.8-1.8-3.4-3.2-4.7
		c-1.4-1.4-2.9-2.4-4.7-3.2c-1.8-0.8-3.8-1.2-5.8-1.2h-45.1c-2.1,0-4,0.4-5.8,1.2c-1.8,0.8-3.4,1.9-4.7,3.2
		c-1.4,1.4-2.4,2.9-3.2,4.7c-0.8,1.8-1.1,3.8-1.1,5.8v67.4c0,2.1,0.4,4,1.1,5.8c0.8,1.8,1.8,3.4,3.2,4.7c1.4,1.4,2.9,2.4,4.7,3.2
		C144.5,361.6,146.4,362,148.5,362z M238.6,174.5v-14.9h-15v14.9H238.6z M238.6,204.5v-15h-15v15H238.6z M238.6,234.5v-14.9h-15
		v14.9H238.6z M223.5,249.5v15h15v-15H223.5z M238.6,294.5v-14.9h-15v14.9H238.6z M238.6,324.5v-15h-15v15H238.6z M238.6,354.5
		v-14.9h-15v14.9H238.6z"/>
</g>
</svg>
