<?xml version="1.0" encoding="utf-8"?>
<svg version="1.1" xmlns="http://www.w3.org/2000/svg" xmlns:xlink="http://www.w3.org/1999/xlink" x="0px" y="0px"
	 viewBox="0 0 342 513" style="enable-background:new 0 0 342 513;background-color:#3E3E3E" xml:space="preserve">
<g>
	<path fill="#959595" d="M202.1,206.4h41.9c2.3,0,4.5,0.4,6.6,1.3c2,0.9,3.8,2.1,5.4,3.6c1.5,1.5,2.8,3.3,3.6,5.4
		c0.9,2.1,1.3,4.3,1.3,6.6v95.5c0,1.7-0.3,3.4-0.9,5c-0.6,1.6-1.4,3.2-2.4,4.6c-1,1.4-2.2,2.7-3.6,3.8c-1.4,1.1-2.8,2-4.4,2.6v6.6
		H92.3v-6.6c-1.6-0.6-3-1.5-4.4-2.6c-1.4-1.1-2.6-2.3-3.6-3.8c-1-1.4-1.8-2.9-2.4-4.6c-0.6-1.6-0.9-3.3-0.9-5v-95.5
		c0-2.3,0.4-4.6,1.3-6.6c0.9-2.1,2.1-3.9,3.6-5.4c1.5-1.5,3.3-2.8,5.4-3.6c2-0.9,4.2-1.3,6.6-1.3h41.9c-1.6-1.6-3.2-3.2-4.9-4.8
		c-1.6-1.6-3.2-3.2-4.8-4.9c-1.3-1.4-2.3-2.9-3-4.6c-0.8-1.7-1.1-3.5-1.1-5.4c0-1.9,0.4-3.8,1.1-5.5c0.7-1.7,1.7-3.2,3-4.5
		c1.3-1.3,2.8-2.3,4.5-3c1.7-0.7,3.5-1.1,5.5-1.1c1.9,0,3.7,0.4,5.4,1.1c1.7,0.7,3.2,1.7,4.6,3.1l21,21l21-21
		c2.8-2.8,6.1-4.1,9.9-4.1c1.9,0,3.7,0.4,5.4,1.1c1.7,0.7,3.2,1.7,4.5,3c1.3,1.3,2.3,2.8,3,4.5c0.7,1.7,1.1,3.5,1.1,5.5
		c0,1.9-0.4,3.7-1.1,5.4c-0.7,1.7-1.7,3.2-3,4.6c-1.6,1.7-3.2,3.3-4.8,4.9C205.4,203.1,203.8,204.7,202.1,206.4z M249.7,318.8v-95.5
		c0-1.6-0.5-2.9-1.6-4c-1.1-1.1-2.4-1.7-4-1.7h-56.2c0-1.1-0.2-2-0.6-2.7c-0.4-0.7-1-1.3-1.6-1.7c-0.7-0.4-1.4-0.7-2.3-0.9
		c-0.9-0.2-1.8-0.3-2.7-0.3l23.3-23.3c0.6-0.6,0.9-1.2,0.9-1.9c0-0.8-0.3-1.5-0.9-2c-0.6-0.6-1.3-0.9-2-0.9c-0.7,0-1.4,0.3-1.9,0.8
		L172.6,212h-3.3L142,184.7c-0.5-0.5-1.1-0.8-1.9-0.8c-0.7,0-1.4,0.3-2,0.9c-0.6,0.6-0.9,1.3-0.9,2c0,0.7,0.3,1.4,0.8,1.9l23.3,23.3
		c-0.9,0-1.9,0.1-2.7,0.3c-0.9,0.2-1.7,0.5-2.3,0.9c-0.7,0.4-1.2,1-1.6,1.7c-0.4,0.7-0.6,1.6-0.6,2.7H97.9c-1.6,0-2.9,0.6-4,1.7
		c-1.1,1.1-1.6,2.5-1.6,4v95.5c0,1.3,0.4,2.4,1.3,3.5c0.8,1,1.7,1.6,2.7,1.9c1,0.3,2,0.4,3.1,0.4c0.7,0,1.4,0,2.1-0.1
		c0.7-0.1,1.4-0.1,2.1-0.1v5.6h135v-5.6c0.7,0,1.4,0,2.1,0.1c0.7,0.1,1.4,0.1,2.1,0.1c0.9,0,1.8-0.1,2.6-0.4
		c0.9-0.2,1.6-0.6,2.3-1.1c0.7-0.5,1.2-1.1,1.6-1.8C249.5,320.7,249.7,319.8,249.7,318.8z M210.7,228.9c1.5,0,2.8,0.6,3.8,1.7
		c1,1.1,1.5,2.5,1.5,3.9v73.1c0,0.8-0.1,1.4-0.4,2c-0.3,0.5-0.6,1.1-1,1.8c-0.5,0.6-1.1,1-1.8,1.4c-0.7,0.3-1.4,0.5-2.1,0.5H109.1
		c-1.5,0-2.8-0.6-4-1.7c-1.1-1.1-1.7-2.4-1.7-4v-73.1c0-1.5,0.6-2.8,1.7-4c1.1-1.1,2.4-1.7,4-1.7H210.7z M232.9,234.5
		c1.6,0,3,0.3,4.4,0.9c1.4,0.6,2.5,1.4,3.6,2.4c1,1,1.8,2.2,2.4,3.6c0.6,1.4,0.9,2.8,0.9,4.4c0,1.6-0.3,3-0.9,4.4
		c-0.6,1.4-1.4,2.5-2.4,3.6s-2.2,1.8-3.6,2.4c-1.4,0.6-2.8,0.9-4.4,0.9c-1.6,0-3-0.3-4.4-0.9c-1.4-0.6-2.6-1.4-3.6-2.4
		s-1.8-2.2-2.4-3.6c-0.6-1.4-0.9-2.9-0.9-4.4c0-1.6,0.3-3,0.9-4.4c0.6-1.4,1.4-2.5,2.4-3.6c1-1,2.2-1.8,3.6-2.4
		C229.9,234.8,231.3,234.5,232.9,234.5z M232.9,268.3c1.6,0,3,0.3,4.4,0.9c1.4,0.6,2.5,1.4,3.6,2.4s1.8,2.2,2.4,3.6
		c0.6,1.4,0.9,2.8,0.9,4.4c0,1.6-0.3,3-0.9,4.4c-0.6,1.4-1.4,2.5-2.4,3.6c-1,1-2.2,1.8-3.6,2.4c-1.4,0.6-2.8,0.9-4.4,0.9
		c-1.6,0-3-0.3-4.4-0.9c-1.4-0.6-2.5-1.4-3.6-2.4c-1-1-1.8-2.2-2.4-3.6c-0.6-1.4-0.9-2.8-0.9-4.4c0-1.6,0.3-3,0.9-4.4
		c0.6-1.4,1.4-2.5,2.4-3.6s2.2-1.8,3.6-2.4C229.9,268.6,231.3,268.3,232.9,268.3z"/>
</g>
</svg>
