<?xml version="1.0" encoding="utf-8"?>
<!-- Generator: Adobe Illustrator 22.1.0, SVG Export Plug-In . SVG Version: 6.00 Build 0)  -->
<svg version="1.1" id="Layer_1" xmlns="http://www.w3.org/2000/svg" xmlns:xlink="http://www.w3.org/1999/xlink" x="0px" y="0px"
	 viewBox="0 0 342 513" style="enable-background:new 0 0 342 513;background-color:#3E3E3E" xml:space="preserve">
<g>
	<path fill="#959595" d="M171,195.1c7.7,0,15.3,1,22.9,3c7.5,2,14.7,4.8,21.6,8.5c6.9,3.6,13.3,7.9,19.3,13c6,5,11.3,10.5,16,16.5
		c1,1.3,2.1,2.7,3.2,4.5c1.2,1.7,2.3,3.5,3.3,5.4s1.9,3.8,2.6,5.8c0.7,1.9,1.1,3.7,1.1,5.3c0,1.6-0.4,3.4-1.1,5.3
		c-0.7,1.9-1.6,3.8-2.6,5.8c-1,1.9-2.2,3.7-3.3,5.4c-1.2,1.7-2.3,3.2-3.2,4.5c-4.7,6-10,11.5-16,16.5c-6,5-12.4,9.3-19.3,13
		c-6.9,3.6-14,6.4-21.6,8.5c-7.5,2-15.1,3-22.9,3c-7.7,0-15.3-1-22.9-3c-7.5-2-14.7-4.8-21.6-8.5c-6.9-3.6-13.3-7.9-19.3-13
		c-6-5-11.3-10.5-16-16.5c-1-1.3-2.1-2.7-3.2-4.5c-1.2-1.7-2.3-3.5-3.3-5.4c-1-1.9-1.9-3.8-2.6-5.8c-0.7-1.9-1.1-3.7-1.1-5.3
		c0-1.6,0.4-3.4,1.1-5.3c0.7-1.9,1.6-3.8,2.6-5.8c1-1.9,2.2-3.7,3.3-5.4c1.2-1.7,2.3-3.2,3.2-4.5c4.7-6,10-11.5,16-16.5
		c6-5,12.4-9.3,19.3-13c6.9-3.6,14-6.4,21.6-8.5C155.7,196.1,163.3,195.1,171,195.1z M171,307.6c6.8,0,13.5-0.9,20.1-2.6
		c6.6-1.7,13-4.2,19-7.4c6.1-3.2,11.7-6.9,17-11.3c5.3-4.4,10-9.2,14.2-14.5c0.6-0.7,1.3-1.7,2.3-3.1c0.9-1.3,1.9-2.7,2.8-4.1
		c0.9-1.4,1.7-2.8,2.3-4.2c0.7-1.4,1-2.5,1-3.4c0-0.8-0.3-2-1-3.4c-0.7-1.4-1.4-2.8-2.3-4.3c-0.9-1.4-1.8-2.8-2.8-4.1
		c-0.9-1.3-1.7-2.3-2.3-3.1c-4.2-5.3-8.9-10.1-14.2-14.5c-5.3-4.4-11-8.2-17.1-11.3c-6.1-3.2-12.4-5.6-19-7.4
		c-6.6-1.7-13.3-2.6-20.1-2.6c-7.1,0-14.2,1-21.1,2.9c-6.9,1.9-13.4,4.6-19.7,8c-6.2,3.4-12.1,7.5-17.5,12.3
		c-5.4,4.7-10.2,10-14.4,15.7c-0.5,0.6-1.1,1.4-1.8,2.5c-0.7,1-1.4,2.1-2,3.2c-0.7,1.1-1.2,2.3-1.7,3.3c-0.5,1.1-0.7,2-0.7,2.8
		c0,0.7,0.2,1.6,0.7,2.7c0.5,1.1,1,2.2,1.7,3.4c0.7,1.1,1.4,2.2,2,3.2c0.7,1,1.3,1.8,1.7,2.5c4.2,5.7,9,10.9,14.4,15.7
		c5.4,4.7,11.2,8.8,17.5,12.3c6.2,3.4,12.8,6.1,19.7,8C156.8,306.7,163.9,307.6,171,307.6z M171,217.6c5.4,0,10.5,1,15.3,3.1
		c4.8,2.1,8.9,4.9,12.5,8.5c3.6,3.6,6.4,7.7,8.5,12.5c2.1,4.8,3.1,9.9,3.1,15.3c0,5.4-1,10.5-3.1,15.3c-2.1,4.8-4.9,8.9-8.5,12.5
		c-3.6,3.6-7.7,6.4-12.5,8.5c-4.8,2.1-9.9,3.1-15.3,3.1c-5.4,0-10.5-1-15.3-3.1c-4.8-2.1-9-4.9-12.5-8.4c-3.5-3.5-6.4-7.7-8.4-12.5
		c-2.1-4.8-3.1-9.9-3.1-15.3c0-5.4,1-10.5,3.1-15.3c2.1-4.8,4.9-8.9,8.5-12.5c3.6-3.6,7.7-6.4,12.5-8.5
		C160.5,218.7,165.6,217.6,171,217.6z M171,276.7c2.7,0,5.3-0.5,7.7-1.6c2.4-1,4.5-2.5,6.3-4.2c1.8-1.8,3.2-3.9,4.2-6.3
		c1-2.4,1.6-5,1.6-7.7s-0.5-5.3-1.6-7.7c-1-2.4-2.5-4.5-4.2-6.3c-1.8-1.8-3.9-3.2-6.3-4.2c-2.4-1-5-1.6-7.7-1.6
		c-2.7,0-5.3,0.5-7.7,1.6c-2.4,1-4.5,2.5-6.3,4.2c-1.8,1.8-3.2,3.9-4.2,6.3c-1,2.4-1.6,5-1.6,7.7s0.5,5.3,1.6,7.7
		c1,2.4,2.5,4.5,4.2,6.3c1.8,1.8,3.9,3.2,6.3,4.2C165.7,276.2,168.3,276.7,171,276.7z M188.2,242.2c1,0,1.9-0.2,2.9-0.6
		c0.9-0.4,1.7-0.9,2.3-1.6c0.7-0.7,1.2-1.4,1.6-2.3c0.4-0.9,0.6-1.9,0.6-2.9c0-1-0.2-1.9-0.6-2.9c-0.4-0.9-0.9-1.7-1.6-2.3
		c-0.7-0.7-1.4-1.2-2.3-1.6c-0.9-0.4-1.9-0.6-2.9-0.6c-1,0-2,0.2-2.9,0.6c-0.9,0.4-1.7,0.9-2.3,1.6c-0.7,0.7-1.2,1.4-1.6,2.3
		c-0.4,0.9-0.6,1.9-0.6,2.9c0,1,0.2,2,0.6,2.9c0.4,0.9,0.9,1.7,1.6,2.3c0.7,0.7,1.4,1.2,2.3,1.6C186.2,242,187.2,242.2,188.2,242.2z
		"/>
</g>
</svg>
