<?xml version="1.0" encoding="utf-8"?>
<svg version="1.1"
	 xmlns="http://www.w3.org/2000/svg" xmlns:xlink="http://www.w3.org/1999/xlink" x="0px" y="0px" viewBox="0 0 1600 1600"
	 style="enable-background:new 0 0 1600 1600;" xml:space="preserve">
<g>
	<g>
		<path fill="FILL_COLOR" d="M418.2,124.2c35.7,5.7,69.6,16,99.9,36.5c58,39.2,99.3,90.4,113.8,160.4c6.9,33.3,10.8,67.4,19.8,100.1
			c10,36.1,31.2,67.1,57.6,93.6c107.1,107.6,214.5,214.7,321.8,322.1c44.2,44.2,88,88.6,132.6,132.4c39.7,39,86.3,68.3,140.4,80.5
			c46,10.4,84.9,30.2,117.3,63.5c32.3,33.2,51.8,72.8,57.6,119c0,20.6,0,41.3,0,61.9c-4.6,35.4-16.9,68-38.9,96.1
			c-42.1,53.8-95.1,86.2-166.1,87.2c-51.3,0.7-98.2-9.2-138.8-41.3c-29.6-23.4-55.2-50.7-68.8-86.8c-14.6-38.8-26-78.9-43.1-116.5
			c-10.3-22.7-26.8-43.6-44.1-61.8c-47.4-49.7-96.8-97.4-145.3-146.1c-73.3-73.7-146.3-147.6-219.7-221.2
			c-36.4-36.5-72.2-73.6-110.4-108.2c-36.9-33.4-81.4-54.3-131.2-59c-52.2-4.9-100.9-17-143.3-49.2c-53.3-40.6-88.9-92.6-101-158.8
			c-7.9-43.3-4.4-86.7,6.2-129.5c3-12.2,24-17,33.3-7.8C218,341.5,268,391.6,318.4,441.5c2.4,2.3,7.6,4.1,10.6,3.2
			c26.9-8.7,53.6-17.9,80.2-27.4c3.5-1.3,7.4-5.1,8.7-8.6c9.6-26.6,18.8-53.3,27.5-80.2c1.1-3.4-0.2-9.4-2.7-11.9
			c-49.6-50.2-99.9-99.8-149.2-150.3c-4.7-4.8-6.6-15.7-4.9-22.5c1.3-5,10.2-9.5,16.5-11.3c12.9-3.8,26.5-5.6,39.7-8.2
			C369.4,124.2,393.8,124.2,418.2,124.2z M1378,1301.8c-0.3-2.2-0.3-3.1-0.5-3.9c-7.7-36-15.3-72.1-23.4-108.1
			c-0.6-2.7-3.8-6-6.4-6.9c-34.7-11.5-69.5-22.8-104.5-33.7c-2.8-0.9-7.6,0.2-9.8,2.1c-27,23.9-53.9,48.1-80.4,72.5
			c-2.5,2.3-4.3,7.6-3.6,11c7.1,35.1,14.5,70,22.4,104.9c0.8,3.4,4.3,7.6,7.6,8.7c34.2,11.5,68.5,22.5,102.9,33.2
			c3.1,1,8.2,0.1,10.6-1.9c27.1-23.9,53.8-48.1,80.6-72.4C1375.4,1305.7,1376.9,1303.2,1378,1301.8z"/>
	</g>
</g>
</svg>
