<?xml version="1.0" encoding="utf-8"?>
<svg version="1.1" xmlns="http://www.w3.org/2000/svg" xmlns:xlink="http://www.w3.org/1999/xlink" x="0px" y="0px"
	 viewBox="0 0 128 128" style="enable-background:new 0 0 128 128;" xml:space="preserve">
<g>
	<path fill="FILL_COLOR" d="M108.9,20.3H120v87.5H74.7c-1.5,1.3-3.1,2.2-5,2.7c-1.9,0.5-3.8,0.8-5.7,0.8c-1.9,0-3.8-0.3-5.7-0.8
		c-1.9-0.5-3.6-1.4-5-2.7H8V20.3h11.1l3.5-3.5h30.9c1.9,0,3.8,0.3,5.5,0.9c1.8,0.6,3.4,1.5,5,2.6c1.6-1.1,3.2-2,5-2.6
		c1.8-0.6,3.6-0.9,5.5-0.9h30.9L108.9,20.3z M113,100.8V27.2h-7l3.5,3.5v66.5H69.2c-0.6,0-1.2,0-1.8,0.1c-0.6,0.1-1.1,0.2-1.6,0.4
		c-0.5,0.2-0.9,0.5-1.2,1c-0.3,0.4-0.5,1-0.5,1.8c-0.1-0.7-0.3-1.3-0.6-1.8c-0.3-0.4-0.7-0.8-1.2-1c-0.5-0.2-1-0.3-1.6-0.4
		c-0.6-0.1-1.2-0.1-1.8-0.1H18.5V30.7l3.5-3.5h-7v73.5h42c0,0.7,0.3,1.2,0.8,1.7c0.5,0.5,1.2,0.8,1.9,1.1c0.7,0.3,1.5,0.5,2.3,0.6
		c0.8,0.1,1.5,0.1,2,0.1c0.5,0,1.1-0.1,1.9-0.2c0.8-0.1,1.6-0.3,2.3-0.6c0.8-0.3,1.4-0.6,1.9-1.1c0.5-0.4,0.8-1,0.8-1.7H113z
		 M53.5,23.7h-28v66.5c4.1,0,8.1,0,12.1-0.1c4-0.1,8.1-0.1,12.1-0.1c0.9,0,1.9,0,2.8,0.1c1,0.1,1.9,0.2,2.8,0.4
		c0.9,0.2,1.8,0.5,2.7,0.9c0.8,0.4,1.6,0.9,2.4,1.6V26.4c-0.9-0.8-2-1.5-3.2-2C56,24,54.8,23.7,53.5,23.7z M102.5,23.7h-28
		c-1.3,0-2.6,0.2-3.8,0.7c-1.2,0.5-2.3,1.1-3.2,2v66.5c0.7-0.6,1.4-1.1,2.2-1.5c0.8-0.4,1.6-0.7,2.5-0.9c0.9-0.2,1.7-0.3,2.6-0.4
		c0.9-0.1,1.8-0.1,2.7-0.1c4.2,0,8.4,0,12.5,0c4.2,0,8.3,0.1,12.5,0.1V23.7z"/>
</g>
</svg>
