<?xml version="1.0" encoding="utf-8"?>
<svg version="1.1" id="Layer_1" xmlns="http://www.w3.org/2000/svg" xmlns:xlink="http://www.w3.org/1999/xlink" x="0px" y="0px"
	 viewBox="0 0 128 128" style="enable-background:new 0 0 128 128;" xml:space="preserve">
<style type="text/css">
	.st0{fill:none;stroke:FILL_COLOR;stroke-width:10;stroke-linecap:round;stroke-linejoin:round;stroke-miterlimit:10;}
	.st1{fill:none;stroke:FILL_COLOR;stroke-width:10;stroke-miterlimit:10;}
</style>
<path class="st0" d="M105,101.4H23c1.6-2.3,3-5,4.3-8.1c4.1-9.8,6.7-23.4,6.7-38.4c0-1.9,0-3.7-0.1-5.5v0c0-1.2-0.1-2.4-0.2-3.6
	c0-8.3,3.4-15.8,8.9-21.3c5.5-5.5,13.1-8.9,21.5-8.9c8.4,0,16,3.4,21.5,8.9c5.5,5.5,8.9,13,8.9,21.4v0.1c-0.1,1.1-0.2,2.3-0.2,3.4v0
	C94,51.2,94,53,94,54.9c0,15,2.5,28.6,6.7,38.4C102,96.4,103.5,99.1,105,101.4z"/>
<path class="st1" d="M33.9,49.3c-0.1-1.1-0.2-2.3-0.2-3.5v-0.1C33.8,46.9,33.8,48.1,33.9,49.3z"/>
<path class="st1" d="M94.3,45.9c0,1.2-0.1,2.3-0.2,3.4C94.2,48.1,94.3,47,94.3,45.9z"/>
<path class="st1" d="M33.7,45.7c0.1,1.2,0.2,2.4,0.2,3.6v0C34,51.2,34,53,34,54.9c0,15-2.5,28.6-6.7,38.4c-1.3,3.1-2.7,5.8-4.3,8.1"
	/>
<line class="st1" x1="105.3" y1="101.4" x2="105" y2="101.4"/>
<path fill="FILL_COLOR" d="M74.9,107.3c0,3-1.2,5.7-3.2,7.7c-2,2-4.7,3.2-7.7,3.2c-3,0-5.7-1.2-7.7-3.2c-2-2-3.2-4.7-3.2-7.7
	c0-2.8,1.1-5.4,2.8-7.3h16.2C73.9,101.9,74.9,104.5,74.9,107.3z"/>
<path class="st1" d="M105,101.4c-1.6-2.3-3-5-4.3-8.1C96.6,83.5,94,69.9,94,54.9c0-1.9,0-3.7,0.1-5.5v0c0-1.1,0.1-2.3,0.2-3.4v-0.1"
	/>
</svg>
