<?xml version="1.0" encoding="utf-8"?>
<svg version="1.1" xmlns="http://www.w3.org/2000/svg" xmlns:xlink="http://www.w3.org/1999/xlink" x="0px" y="0px"
	 viewBox="0 0 128 128" style="enable-background:new 0 0 128 128;" xml:space="preserve">
<g>
	<path fill="FILL_COLOR" d="M45.3,22.5l51.3-10v70.3c0,3.6-0.5,6.9-1.5,10c-1,3.1-2.4,5.8-4.2,8.1c-1.9,2.3-4.1,4.1-6.8,5.4
		c-2.7,1.3-5.8,2-9.2,2c-3.4,0-6-0.9-7.9-2.7c-1.9-1.8-2.9-4.3-2.9-7.4c0-1.9,0.4-3.9,1.3-5.9c0.9-2,2.1-3.8,3.7-5.3
		c1.6-1.6,3.5-2.9,5.7-3.9c2.2-1,4.7-1.5,7.4-1.5c2.5,0,5.2,0.5,8,1.6V43.7l-38.3,7.5V90c0,3.6-0.5,6.9-1.5,10
		c-1,3.1-2.4,5.8-4.2,8.1c-1.9,2.3-4.1,4.1-6.8,5.4c-2.7,1.3-5.8,2-9.2,2c-3.4,0-6-0.9-7.9-2.7c-1.9-1.8-2.9-4.3-2.9-7.4
		c0-1.9,0.4-3.9,1.3-5.9c0.9-2,2.1-3.8,3.7-5.3c1.6-1.6,3.5-2.9,5.7-3.9c2.2-1,4.7-1.5,7.4-1.5c2.5,0,5.2,0.5,8,1.6V22.5z
		 M90.1,23.8l-38.3,7.4v10l38.3-7.5V23.8z"/>
</g>
</svg>
