<?xml version="1.0" encoding="utf-8"?>
<svg version="1.1" id="Layer_1" xmlns="http://www.w3.org/2000/svg" xmlns:xlink="http://www.w3.org/1999/xlink" x="0px" y="0px"
	 viewBox="0 0 512 512" style="enable-background:new 0 0 512 512;" xml:space="preserve">
<g>
	<path fill="#C1C1C1" d="M361.4,48c-9.5,12.6-18.2,24.5-27.3,36.1c-1,1.3-3.8,1.6-5.8,1.6c-72.3,0.1-144.7,0.1-217,0.1c-2,0-3.9,0-6.1,0
		c0,114.2,0,228,0,342c101.2,0,202.3,0,304,0c0-2,0-3.9,0-5.9c0-78.7,0-157.3-0.1-236c0-3.8,1.2-6,4.2-8.2
		c11.1-8.1,22.1-16.4,34-25.4c0,2.9,0,4.6,0,6.4c0,88.7,0,177.3,0,266c0,26-15.4,41.4-41.2,41.4c-99.3,0-198.6,0-298,0
		c-25.7,0-41.2-15.4-41.2-40.9c0-112.3,0-224.6,0-337c0-20.7,11.4-35.7,30.1-39.7c2.9-0.6,6-0.8,8.9-0.8c83.7,0,167.3,0,251,0
		C358,47.8,359.2,47.9,361.4,48z"/>
	<path fill="#C1C1C1" d="M381.2,82.3c13.4,10.5,26.5,20.8,40,31.4c-11.1,14.8-22,29.2-32.8,43.7c-12.6,16.8-25.3,33.4-37.7,50.3
		c-5.1,6.9-11.1,12.4-18.8,16c-8.9,4.1-17.7,8.5-26.8,12.1c-7,2.7-10.6,0-9.7-7.4c1.5-12.5,3.7-25,6.2-37.4c0.7-3.6,3-7.1,5.2-10.1
		c24-32.1,48.2-64.2,72.3-96.2C379.5,84,380.3,83.3,381.2,82.3z"/>
	<path fill="#C1C1C1" d="M257,380.8c-29,0-57.9,0-86.9,0c-7.1,0-8.2-1-8.2-8c0-4.7,0.1-9.3,0-14c-0.2-5,2.1-6.8,6.9-6.8c25.6,0.1,51.3,0,76.9,0
		c32.5,0,64.9,0,97.4,0c8.4,0,8.9,0.6,8.9,9.2c0,4.2-0.2,8.3,0,12.5c0.3,5.7-2.7,7.1-7.7,7.1c-26-0.1-51.9,0-77.9,0
		C263.3,380.8,260.2,380.8,257,380.8z"/>
	<path fill="#C1C1C1" d="M257,314c-29.2,0-58.3,0-87.5,0c-6.7,0-7.6-0.9-7.6-7.4c0-4.8,0.1-9.7,0-14.5c-0.2-4.8,2-6.7,6.6-6.5c0.8,0,1.7,0,2.5,0
		c57.3,0,114.7,0,172,0c8.7,0,9.1,0.5,9.1,9c0,4.2-0.2,8.3,0,12.5c0.3,5.2-2,7.1-7.1,7.1C315.7,314,286.3,314,257,314z"/>
	<path fill="#C1C1C1" d="M433.7,97.5c-13.7-10.8-26.9-21.1-40.3-31.7c6.8-8,11.6-18.2,24-16.4c12.8,1.8,21.2,10,26.3,21.3
		C449,82.3,439.3,88.9,433.7,97.5z"/>
</g>
</svg>
