<?xml version="1.0" encoding="utf-8"?>
<svg version="1.1" id="Layer_1" xmlns="http://www.w3.org/2000/svg" xmlns:xlink="http://www.w3.org/1999/xlink" x="0px" y="0px"
	 viewBox="0 0 128 128" style="enable-background:new 0 0 128 128;" xml:space="preserve">
<g>
	<g>
		<path fill="FILL_COLOR" d="M84.2,28.5h26c1.5,0,2.8,0.3,4.1,0.8c1.3,0.6,2.4,1.3,3.3,2.3c1,1,1.7,2.1,2.3,3.3c0.5,1.3,0.8,2.6,0.8,4.1
			v59.2c0,1.1-0.2,2.1-0.6,3.1s-0.9,2-1.5,2.8s-1.4,1.7-2.2,2.3s-1.7,1.2-2.7,1.6v4.1H16.1v-4.1c-1-0.4-1.9-0.9-2.7-1.6
			c-0.9-0.7-1.6-1.5-2.2-2.3c-0.6-0.9-1.1-1.8-1.5-2.8c-0.4-1-0.5-2.1-0.5-3.1V39.1c0-1.5,0.3-2.8,0.8-4.1c0.5-1.3,1.3-2.4,2.3-3.3
			c1-1,2.1-1.7,3.3-2.3c1.3-0.5,2.6-0.8,4.1-0.8h26c-1-1-2-2-3-3c-1-1-2-2-3-3c-0.8-0.8-1.4-1.8-1.9-2.8c-0.5-1.1-0.7-2.2-0.7-3.3
			c0-1.2,0.2-2.3,0.7-3.4s1.1-2,1.9-2.8c0.8-0.8,1.7-1.4,2.8-1.9c1.1-0.5,2.2-0.7,3.4-0.7c1.2,0,2.3,0.2,3.3,0.7
			c1.1,0.4,2,1.1,2.8,1.9l13,13l13-13c1.7-1.7,3.8-2.6,6.2-2.6c1.2,0,2.3,0.2,3.4,0.7c1.1,0.5,2,1.1,2.8,1.9
			c0.8,0.8,1.4,1.7,1.9,2.8c0.5,1.1,0.7,2.2,0.7,3.4c0,1.2-0.2,2.3-0.7,3.3c-0.5,1.1-1.1,2-1.8,2.8c-1,1-2,2-3,3
			C86.3,26.5,85.2,27.5,84.2,28.5z M113.8,98.3V39.1c0-1-0.3-1.8-1-2.5c-0.7-0.7-1.5-1-2.5-1H75.4c0-0.7-0.1-1.2-0.4-1.7
			c-0.3-0.5-0.6-0.8-1-1.1c-0.4-0.3-0.9-0.4-1.4-0.6C72,32.1,71.5,32,70.9,32l14.5-14.5c0.4-0.4,0.5-0.7,0.5-1.2
			c0-0.5-0.2-0.9-0.6-1.3c-0.4-0.4-0.8-0.5-1.3-0.5s-0.8,0.2-1.2,0.5L65.9,32h-2L47,15.1c-0.3-0.3-0.7-0.5-1.2-0.5
			c-0.5,0-0.9,0.2-1.2,0.5c-0.4,0.4-0.6,0.8-0.6,1.3c0,0.5,0.2,0.8,0.5,1.2L58.9,32c-0.6,0-1.1,0.1-1.7,0.2c-0.6,0.1-1,0.3-1.4,0.6
			c-0.4,0.3-0.7,0.6-1,1.1c-0.3,0.5-0.4,1-0.4,1.7H19.6c-1,0-1.8,0.3-2.5,1c-0.7,0.7-1,1.5-1,2.5v59.2c0,0.8,0.3,1.5,0.8,2.2
			c0.5,0.6,1,1,1.7,1.2c0.6,0.2,1.3,0.3,1.9,0.3c0.4,0,0.8,0,1.3,0s0.9,0,1.3,0v3.4h83.7v-3.4c0.5,0,0.9,0,1.3,0c0.4,0,0.9,0,1.3,0
			c0.5,0,1.1-0.1,1.6-0.2c0.5-0.1,1-0.4,1.4-0.7c0.4-0.3,0.7-0.7,1-1.1C113.6,99.4,113.8,98.9,113.8,98.3z M89.5,42.5
			c0.9,0,1.7,0.4,2.4,1.1c0.6,0.7,0.9,1.5,0.9,2.4v45.3c0,0.5-0.1,0.9-0.2,1.2c-0.2,0.3-0.4,0.7-0.6,1.1c-0.3,0.4-0.7,0.6-1.1,0.8
			c-0.4,0.2-0.9,0.3-1.3,0.3h-63c-0.9,0-1.8-0.3-2.5-1c-0.7-0.7-1-1.5-1-2.5V46c0-0.9,0.3-1.8,1-2.5c0.7-0.7,1.5-1,2.5-1H89.5z
			 M103.3,46c1,0,1.9,0.2,2.7,0.5c0.8,0.4,1.6,0.8,2.2,1.5c0.6,0.6,1.1,1.4,1.5,2.2c0.4,0.8,0.5,1.7,0.5,2.7s-0.2,1.9-0.5,2.7
			c-0.4,0.8-0.8,1.6-1.5,2.2c-0.6,0.6-1.4,1.1-2.2,1.5c-0.8,0.4-1.7,0.6-2.7,0.6s-1.9-0.2-2.7-0.5c-0.9-0.4-1.6-0.8-2.2-1.5
			s-1.1-1.4-1.5-2.2c-0.4-0.9-0.5-1.8-0.5-2.7s0.2-1.9,0.6-2.7c0.4-0.8,0.9-1.6,1.5-2.2c0.6-0.6,1.4-1.1,2.2-1.5
			C101.4,46.2,102.3,46,103.3,46z M103.3,66.9c1,0,1.9,0.2,2.7,0.6c0.8,0.4,1.6,0.9,2.2,1.5s1.1,1.4,1.5,2.2
			c0.4,0.8,0.5,1.7,0.5,2.7c0,1-0.2,1.9-0.5,2.7c-0.4,0.8-0.8,1.6-1.5,2.2c-0.6,0.6-1.4,1.1-2.2,1.5s-1.7,0.5-2.7,0.5
			s-1.9-0.2-2.7-0.5s-1.6-0.8-2.2-1.5c-0.6-0.6-1.1-1.4-1.5-2.2c-0.4-0.8-0.6-1.7-0.6-2.7c0-1,0.2-1.9,0.5-2.7
			c0.4-0.8,0.8-1.6,1.5-2.2s1.4-1.1,2.2-1.5C101.4,67.1,102.3,66.9,103.3,66.9z"/>
	</g>
</g>
</svg>
