<?xml version="1.0" encoding="utf-8"?>
<svg version="1.1" id="Layer_1" xmlns="http://www.w3.org/2000/svg" xmlns:xlink="http://www.w3.org/1999/xlink" x="0px" y="0px"
	 viewBox="0 0 128 128" style="enable-background:new 0 0 128 128;" xml:space="preserve">
<style type="text/css">
	.st0{fill:none;stroke:#C1C1C1;stroke-width:4;stroke-miterlimit:10;}
	.st1{fill:#C1C1C1;}
	.st2{fill:none;stroke:#C1C1C1;stroke-width:6;stroke-linecap:round;stroke-miterlimit:10;}
</style>
<path class="st0" d="M94.5,54.4h-1.8V40.6c0-15.8-12.8-28.7-28.7-28.7S35.3,24.8,35.3,40.6v13.8h-1.9c-6.6,0-12,5.4-12,12v38.1
	c0,6.6,5.4,12,12,12h61.1c6.6,0,12-5.4,12-12V66.4C106.5,59.8,101.1,54.4,94.5,54.4z M84.4,54.4H43.6V40.6
	c0-11.3,9.1-20.4,20.4-20.4s20.4,9.1,20.4,20.4V54.4z"/>
<path class="st0" d="M84.4,40.6v13.8H43.6V40.6c0-11.3,9.1-20.4,20.4-20.4S84.4,29.4,84.4,40.6z"/>
<line class="st0" x1="92.7" y1="40.6" x2="92.7" y2="39.5"/>
<circle class="st1" cx="64" cy="78.3" r="7.1"/>
<line class="st2" x1="64" y1="78.3" x2="64" y2="97"/>
</svg>
